<svg width="1874" height="639" viewBox="0 0 1874 639" fill="none" xmlns="http://www.w3.org/2000/svg">
<g style="mix-blend-mode:hard-light" filter="url(#filter0_f_585_6034)">
<path d="M870.737 270.792C909.524 270.792 946.982 284.975 974.452 310.281C1003.1 336.676 1017.04 368.778 1021.06 417.686C1022.51 435.266 1022.64 453.62 1022.64 474.078C1022.64 561.569 964.164 618.094 873.687 618.094C825.008 618.094 785.616 601.722 759.596 572.994C785.688 540.324 799.339 498.127 799.339 449.34C799.339 425.073 799.206 403.249 797.441 381.921C795.446 357.57 791.19 329.264 778.724 301.092C802.422 282.943 831.731 272.412 863.482 270.961C865.9 270.848 868.318 270.792 870.737 270.792ZM597.351 212.086C642.728 212.086 686.559 228.687 718.721 258.298C752.273 289.178 768.584 326.745 773.287 383.887C775.016 404.296 775.149 425.601 775.113 449.42C775.113 551.855 706.69 618.054 600.785 618.054C566.967 618.054 537.005 611.222 511.844 598.708C517.767 594.462 523.454 589.897 528.88 585.033C569.131 548.881 589.408 500.674 587.497 445.624C586.288 410.415 574.982 377.491 554.851 350.395C531.503 318.97 490.672 302.925 444.727 306.686C446.033 302.792 447.205 298.887 448.282 294.981C453.656 285.233 460.148 276.144 467.627 267.898C498.072 234.189 541.14 214.456 588.887 212.279C591.708 212.15 594.53 212.086 597.351 212.086ZM1469.14 37.2207C1521.34 22.8929 1566.02 17.4636 1601.94 21.0909C1630.64 23.9806 1653.81 32.6259 1670.86 46.8086C1709.25 78.7333 1705.34 130.054 1705.34 130.563L1705.26 131.445V132.34C1707.13 165.312 1698.77 189.639 1680.41 204.656C1638.37 239.027 1556.63 218.179 1555.56 217.897C1552.46 217.077 1549.16 217.523 1546.38 219.137C1543.61 220.75 1541.59 223.398 1540.78 226.499C1539.96 229.6 1540.4 232.899 1542.02 235.671C1543.63 238.443 1546.28 240.461 1549.38 241.28C1552.49 242.103 1612.46 257.518 1662.62 241.038C1706.54 287.576 1687.51 334.236 1679.4 349.241C1660.51 350.511 1641.75 353.272 1623.29 357.499L1622.98 357.571C1621 358.068 1574.55 369.965 1548.82 395.694C1547.7 396.817 1546.81 398.15 1546.2 399.617C1545.59 401.084 1545.28 402.656 1545.28 404.244C1545.28 405.832 1545.59 407.406 1546.2 408.873C1546.8 410.34 1547.69 411.674 1548.82 412.797C1549.94 413.92 1551.27 414.812 1552.74 415.42C1554.21 416.028 1555.78 416.341 1557.37 416.342C1558.95 416.342 1560.53 416.03 1561.99 415.423C1563.46 414.816 1564.79 413.925 1565.92 412.803C1586.35 392.405 1626.22 381.729 1628.79 381.052C1653.03 375.659 1674.97 372.975 1695.84 372.855H1696.95C1771.33 372.855 1851.35 417.434 1853.94 500.56C1854.97 533.616 1843.1 565.404 1821.41 587.784C1812.43 597.239 1801.6 604.748 1789.6 609.844C1777.59 614.939 1764.67 617.514 1751.62 617.407H1503.53C1486.91 617.55 1470.31 616.117 1453.96 613.127C1474.96 592.185 1486 561.437 1486.73 521.537C1488.21 442.184 1480.29 375.067 1463.22 321.867C1440.96 252.646 1403.31 206.784 1351.11 185.153C1350.95 180.498 1350.81 175.844 1350.69 171.213C1349.57 126.21 1351.12 95.0154 1381.74 72.2481C1405.34 54.692 1435.93 46.3129 1465.51 38.212L1469.14 37.2207ZM1212.68 254.603C1231.04 211.559 1275.87 188.948 1321.24 200.616C1377.33 215.053 1417.41 258.339 1440.2 329.265C1456.43 379.865 1464 444.395 1462.64 521.027C1461.99 555.825 1452.63 581.736 1434.83 598.047C1411.77 619.158 1381.4 617.296 1381.15 617.296H1380.43C1333.39 616.425 1317.4 593.235 1313 584.372C1326.67 544.653 1307.56 498.018 1306.68 495.902C1305.41 492.991 1303.05 490.694 1300.11 489.507C1297.16 488.32 1293.87 488.339 1290.94 489.56C1288.01 490.781 1285.68 493.106 1284.45 496.032C1283.21 498.958 1283.18 502.251 1284.36 505.2C1284.55 505.66 1303.19 551.533 1287.47 582.885C1280.6 596.451 1268.36 605.302 1249.98 609.945C1185.7 626.195 1161.81 588.145 1156.68 578.013C1160.13 566.559 1161.93 554.67 1162.02 542.707C1162.08 539.5 1160.87 536.401 1158.64 534.092C1156.41 531.782 1153.36 530.452 1150.16 530.393C1146.95 530.333 1143.85 531.55 1141.54 533.775C1139.23 536.001 1137.9 539.053 1137.84 542.26C1137.35 568.352 1129.46 587.77 1114.37 599.958C1085.02 623.644 1036.93 614.551 1036.47 614.467L1035.48 614.31C1020.82 612.746 1006.61 608.256 993.716 601.106C994.429 600.55 995.01 599.994 995.639 599.426C1029.11 569.259 1046.81 525.925 1046.81 474.103C1046.81 453.113 1046.67 434.215 1045.16 415.728C1042.13 378.862 1033.21 331.537 990.826 292.52C985.598 287.712 980.069 283.241 974.274 279.135C993.208 240.48 1026.29 200.713 1082.22 200.713H1084.43C1130.61 201.571 1164.84 220.337 1186.23 256.488C1196.06 273.444 1202.48 292.157 1205.14 311.575C1198.21 313.527 1191.42 315.951 1184.81 318.83C1181.94 320.18 1179.72 322.605 1178.62 325.582C1177.52 328.559 1177.63 331.85 1178.93 334.743C1180.24 337.636 1182.63 339.9 1185.59 341.047C1188.55 342.193 1191.84 342.131 1194.75 340.872C1208.91 334.476 1236.5 326.81 1250.02 333.267C1252.87 334.41 1256.05 334.426 1258.91 333.312C1261.77 332.197 1264.1 330.036 1265.43 327.267C1266.75 324.497 1266.98 321.327 1266.05 318.399C1265.13 315.472 1263.12 313.007 1260.44 311.503C1250.95 306.981 1239.77 306.134 1228.95 307.053C1226.31 288.825 1220.82 271.126 1212.68 254.603ZM69.512 76.4209C139.87 1.65042 278.855 11.3591 359.599 66.8204C404.191 97.4952 431.77 153.695 431.576 213.569C431.456 253.941 423.959 327.007 375.184 362.688C372.871 364.38 371.153 366.761 370.275 369.489C369.396 372.217 369.403 375.153 370.293 377.877C371.184 380.601 372.913 382.974 375.234 384.656C377.554 386.339 380.347 387.245 383.213 387.244C402.353 387.244 419.704 349.484 435.204 339.327C450.705 329.171 469.966 332.363 487.135 336.909C505.126 341.685 521.86 351.492 533.08 366.581C549.669 388.889 559.354 417.29 560.382 446.538C564.022 551.621 473.013 607.591 386.937 615.147C352.756 618.134 307.233 614.833 284.163 582.103C282.58 579.866 281.153 577.557 279.811 575.199C279.363 573.897 278.714 572.673 277.888 571.571C257.636 531.393 269.739 478.06 276.389 455.667C277.415 452.212 277.026 448.49 275.309 445.321C273.591 442.153 270.685 439.797 267.23 438.771C263.775 437.744 260.053 438.132 256.884 439.85C253.715 441.567 251.358 444.474 250.332 447.929C243.852 469.995 239.874 493.004 239.994 516.062C240.103 534.355 249.595 550.691 249.595 568.573C249.534 595.367 221.363 606.213 199.502 611.388C151.247 622.826 86.1726 614.265 49.6819 569.371C42.3104 560.343 36.1824 550.368 31.4612 539.712C4.30489 478.108 30.5787 408.356 56.7073 351.226C60.8304 342.23 102.375 249.915 95.8938 248.028C69.1608 240.266 44.5076 224.705 34.6897 198.455C19.0441 156.669 41.7874 105.911 69.512 76.4209ZM1794.51 437.511C1792.1 437.647 1789.85 438.732 1788.25 440.527C1786.65 442.323 1785.82 444.683 1785.96 447.086C1786.09 449.49 1787.18 451.741 1788.97 453.345C1796.44 460.831 1802.22 469.837 1805.9 479.751C1814.34 502.289 1810.83 526.169 1795.48 550.726C1794.2 552.767 1793.78 555.234 1794.31 557.584C1794.85 559.934 1796.3 561.975 1798.34 563.258C1800.38 564.54 1802.85 564.96 1805.2 564.424C1807.55 563.888 1809.59 562.439 1810.87 560.398V560.361C1833.9 523.496 1830.12 492.761 1822.89 473.415C1818.21 460.725 1810.75 449.242 1801.06 439.803C1799.27 438.199 1796.91 437.375 1794.51 437.511ZM661.651 398.831C657.383 397.538 652.389 398.88 650.503 401.83C648.529 405.087 646.8 408.486 645.328 411.999C643.527 409.335 641.504 406.827 639.283 404.502C636.622 401.794 631.363 401.165 627.518 403.003C623.673 404.841 622.706 408.48 625.354 411.128C631.832 418.305 636.364 427.022 638.521 436.446C639.957 442.974 639.957 449.736 638.521 456.264C636.756 464.232 632.694 472.817 625.052 481.655C622.658 484.436 623.976 488.014 627.99 489.671C629.361 490.222 630.828 490.501 632.306 490.493C633.647 490.547 634.985 490.321 636.234 489.83C637.483 489.339 638.616 488.593 639.561 487.64C641.826 485.025 643.926 482.271 645.848 479.394C647.257 482.071 648.824 484.664 650.539 487.156C651.99 489.284 655.025 490.493 658.181 490.493C659.412 490.497 660.637 490.305 661.808 489.925C666.028 488.546 667.818 485.064 665.823 482.15C660.459 474.431 656.954 465.575 655.581 456.275H655.63C656.871 449.738 656.89 443.027 655.69 436.482C657.208 425.938 660.708 415.776 666.004 406.533C667.866 403.571 665.919 400.125 661.651 398.831ZM921.652 415.425C917.637 414.433 912.97 415.497 911.204 417.843C909.375 420.399 907.758 423.101 906.368 425.92C904.676 423.776 902.799 421.785 900.758 419.971C898.267 417.843 893.335 417.299 889.732 418.762C886.129 420.225 885.281 423.115 887.7 425.219C893.577 430.668 897.843 437.628 900.033 445.338C901.386 450.49 901.385 455.904 900.033 461.056C898.388 467.367 894.58 474.175 887.422 481.212C885.185 483.412 886.406 486.265 890.166 487.571C891.47 488.014 892.84 488.235 894.217 488.225C896.691 488.337 899.12 487.532 901.036 485.964C903.143 483.909 905.113 481.72 906.937 479.41C908.266 481.558 909.732 483.617 911.325 485.576C912.68 487.245 915.521 488.225 918.484 488.225C919.631 488.228 920.774 488.077 921.881 487.777C925.835 486.677 927.516 483.908 925.642 481.599C920.718 475.694 917.413 468.611 916.053 461.044C917.188 455.87 917.184 450.51 916.041 445.338C917.553 436.813 920.85 428.705 925.714 421.543C927.467 419.197 925.666 416.416 921.652 415.425ZM1208.11 365.489C1203.31 365.49 1199.41 370.531 1199.41 376.733C1199.41 382.936 1203.28 387.978 1208.11 387.979C1212.93 387.979 1216.82 382.948 1216.82 376.733C1216.82 370.519 1212.91 365.489 1208.11 365.489ZM1245.84 365.489C1241.04 365.489 1237.13 370.531 1237.13 376.733C1237.13 382.936 1241 387.979 1245.84 387.979C1250.65 387.978 1254.54 382.948 1254.54 376.733C1254.54 370.519 1250.64 365.49 1245.84 365.489ZM1599.87 279.887C1595.07 279.887 1591.16 284.929 1591.16 291.132C1591.16 297.334 1595.06 302.376 1599.87 302.376C1604.68 302.376 1608.58 297.346 1608.58 291.132C1608.58 284.917 1604.71 279.887 1599.87 279.887ZM1637.59 279.887C1632.79 279.887 1628.89 284.929 1628.89 291.132C1628.89 297.334 1632.78 302.376 1637.59 302.376C1642.41 302.376 1646.3 297.346 1646.3 291.132C1646.3 284.917 1642.43 279.887 1637.59 279.887ZM336.88 224.125C332.068 224.125 328.162 229.154 328.162 235.369C328.162 241.584 332.044 246.614 336.88 246.614C341.644 246.614 345.585 241.572 345.585 235.369C345.585 229.167 341.692 224.125 336.88 224.125ZM374.604 224.125C369.792 224.125 365.899 229.167 365.899 235.369C365.899 241.584 369.804 246.614 374.604 246.614C379.404 246.614 383.297 241.572 383.297 235.369C383.297 229.167 379.416 224.125 374.604 224.125Z" fill="white" fill-opacity="0.1"/>
</g>
<defs>
<filter id="filter0_f_585_6034" x="0" y="0" width="1874" height="638.094" filterUnits="userSpaceOnUse" color-interpolation-filters="sRGB">
<feFlood flood-opacity="0" result="BackgroundImageFix"/>
<feBlend mode="normal" in="SourceGraphic" in2="BackgroundImageFix" result="shape"/>
<feGaussianBlur stdDeviation="10" result="effect1_foregroundBlur_585_6034"/>
</filter>
</defs>
</svg>
