<svg width="65" height="64" viewBox="0 0 65 64" fill="none" xmlns="http://www.w3.org/2000/svg">
<rect x="0.666626" width="64" height="64" rx="32" fill="#2048BF" fill-opacity="0.1"/>
<path d="M18.3161 14.0195H24.9088C24.9088 14.0195 26.2243 14.0195 26.2243 15.335V46.9833C26.2243 46.9833 26.2243 48.2988 24.9088 48.2988H18.3161C18.3161 48.2988 17.0006 48.2988 17.0006 46.9833V15.3427C17.0006 15.3427 17.0006 14.0272 18.3161 14.0272M27.5475 19.2968H34.1402C34.1402 19.2968 35.4557 19.2968 35.4557 20.6123V46.991C35.4557 46.991 35.4557 48.3064 34.1402 48.3064H27.5475C27.5475 48.3064 26.232 48.3064 26.232 46.991V20.62C26.232 20.62 26.232 19.3045 27.5475 19.3045M17.0006 39.0827H26.232M26.232 36.4441H35.4634M42.0561 41.7137L49.649 39.8136M37.8482 19.8584L42.9639 18.5814C42.9639 18.5814 44.2409 18.2583 44.564 19.543L50.9644 45.1293C50.9644 45.1293 51.2875 46.4063 50.0028 46.7294L44.8871 48.0064C44.8871 48.0064 43.6101 48.3295 43.287 47.0448L36.8866 21.4585C36.8866 21.4585 36.5635 20.1815 37.8482 19.8584Z" stroke="#2048BF" stroke-width="1.53856" stroke-linecap="round" stroke-linejoin="round"/>
</svg>
