<svg width="65" height="64" viewBox="0 0 65 64" fill="none" xmlns="http://www.w3.org/2000/svg">
<rect x="0.333374" width="64" height="64" rx="32" fill="#4983EF" fill-opacity="0.1"/>
<path d="M38.7516 39.9748L44.4646 36.547M39.0098 43.0896L44.2142 45.1713M29.0863 42.1739H16.5646C15.7037 42.1739 14.9994 41.4696 14.9994 40.6087V18.6957C14.9994 17.8348 15.7037 17.1304 16.5646 17.1304H44.7385C45.5994 17.1304 46.3037 17.8348 46.3037 18.6957V28.087M22.8255 14V21.8261M38.4777 14V21.8261M14.9994 24.9565H46.3037M32.2168 41.7826C32.2168 43.7313 33.7898 45.3043 35.7385 45.3043C37.6872 45.3043 39.2603 43.7313 39.2603 41.7826C39.2603 39.8339 37.6872 38.2609 35.7385 38.2609C33.7898 38.2609 32.2168 39.8339 32.2168 41.7826ZM43.9559 46.4783C43.9559 48.427 45.529 50 47.4777 50C49.4263 50 50.9994 48.427 50.9994 46.4783C50.9994 44.5296 49.4263 42.9565 47.4777 42.9565C45.529 42.9565 43.9559 44.5296 43.9559 46.4783ZM43.9559 34.7391C43.9559 36.6878 45.529 38.2609 47.4777 38.2609C49.4263 38.2609 50.9994 36.6878 50.9994 34.7391C50.9994 32.7904 49.4263 31.2174 47.4777 31.2174C45.529 31.2174 43.9559 32.7904 43.9559 34.7391Z" stroke="#3C8BFA" stroke-width="1.56522" stroke-linecap="round" stroke-linejoin="round"/>
</svg>
