<svg width="64" height="64" viewBox="0 0 64 64" fill="none" xmlns="http://www.w3.org/2000/svg">
<rect width="64" height="64" rx="32" fill="#2CD5CA" fill-opacity="0.1"/>
<path d="M42.7391 37.783V42.7395H46.0435M30.1991 13.3886C30.7609 13.1243 31.3722 12.9921 32 13.0004C33.2474 13.0334 34.4287 13.5786 35.2548 14.5121C36.0809 15.4456 36.4857 16.6847 36.37 17.9321C36.56 19.8899 35.9074 21.8312 34.5774 23.2686C34.1643 23.723 34.0074 26.1599 34.9491 26.5069C38.4022 27.7873 41.153 28.696 41.8056 30.0178C41.8552 30.1251 41.913 30.2325 41.9543 30.3482M34.4783 42.7395C34.4783 47.2995 38.1791 51.0004 42.7391 51.0004C47.2991 51.0004 51 47.2995 51 42.7395C51 38.1795 47.2991 34.4786 42.7391 34.4786C38.1791 34.4786 34.4783 38.1795 34.4783 42.7395ZM13 34.4786C13.0165 32.9421 13.3304 31.4304 13.9335 30.0178C14.5944 28.696 17.3452 27.7873 20.79 26.5069C21.7235 26.1599 21.5748 23.723 21.1617 23.2686C19.8317 21.823 19.1791 19.8817 19.3691 17.9321C19.2535 16.6847 19.65 15.4538 20.4843 14.5121C21.3104 13.5786 22.4917 13.0251 23.7474 13.0004C24.9948 13.0334 26.1761 13.5786 27.0022 14.5121C27.8283 15.4456 28.233 16.6847 28.1174 17.9321C28.3074 19.8899 27.6548 21.8312 26.3248 23.2686C25.9117 23.723 25.7548 26.1599 26.6965 26.5069C30.1496 27.7873 32.9004 28.696 33.553 30.0178C34.1561 31.4304 34.47 32.9421 34.4865 34.4786H13.0083H13Z" stroke="#2CD5CA" stroke-width="1.65217" stroke-linecap="round" stroke-linejoin="round"/>
</svg>
