<svg width="64" height="64" viewBox="0 0 64 64" fill="none" xmlns="http://www.w3.org/2000/svg">
<rect width="64" height="64" rx="32" fill="#F33D3D" fill-opacity="0.1"/>
<path d="M50.5 44.7932H34.33M34.33 44.7932L39.8678 39.2554M34.33 44.7932L39.8678 50.3309M35.4827 35.8779C34.6283 33.0808 31.9843 30.985 28.9454 30.985C25.9065 30.985 23.2626 33.0808 22.4081 35.8779M29.6628 42.3991H17.1122C16.2255 42.3991 15.5 41.6737 15.5 40.787V17.1043C15.5 16.2177 16.2255 15.4922 17.1122 15.4922H40.7948C41.6815 15.4922 42.407 16.2177 42.407 17.1043V32.7987M28.9454 29.8162C31.0977 29.8162 32.8468 28.067 32.8468 25.9148C32.8468 23.7626 31.0977 22.0134 28.9454 22.0134C26.7932 22.0134 25.044 23.7626 25.044 25.9148C25.044 28.067 26.7932 29.8162 28.9454 29.8162Z" stroke="#F33D3D" stroke-width="1.61216" stroke-linecap="round" stroke-linejoin="round"/>
</svg>
