<svg width="65" height="64" viewBox="0 0 65 64" fill="none" xmlns="http://www.w3.org/2000/svg">
<rect x="0.5" width="64" height="64" rx="32" fill="#FFA73C" fill-opacity="0.1"/>
<path d="M43.2475 41.0488C43.2475 41.0488 39.794 39.512 37.3247 38.6141C35.7189 38.0097 35.9433 35.316 36.8758 34.2972C38.4989 32.7086 39.3019 30.4638 39.0515 28.2018C39.1896 26.7254 38.6889 25.2577 37.6787 24.1785C36.6686 23.0993 35.2354 22.4949 33.7504 22.5381C32.2654 22.4949 30.8408 23.0906 29.822 24.1785C28.8119 25.2577 28.3111 26.7254 28.4492 28.2018C28.1989 30.4638 29.0018 32.7086 30.625 34.2972C31.5574 35.316 31.7819 38.0097 30.176 38.6141C27.7067 39.512 24.2533 41.0488 24.2533 41.0488M12.166 27.2348L17.3463 35.0052M17.3463 35.0052L23.3899 28.0982M17.3463 35.0052C16.7419 30.3516 18.0974 25.6635 21.0933 22.0546C24.0892 18.4457 28.4579 16.2613 33.146 16.011C42.2028 15.6829 49.8178 22.7539 50.1545 31.8107C50.4912 40.8675 43.4202 48.4825 34.3547 48.8192" stroke="#FFA73C" stroke-width="1.72675" stroke-linecap="round" stroke-linejoin="round"/>
</svg>
