<svg width="13" height="16" viewBox="0 0 13 16" fill="none" xmlns="http://www.w3.org/2000/svg">
<path d="M13 8.02107C13 8.24753 12.8851 8.44766 12.7083 8.53193L9.98096 9.78012C9.02176 10.2172 8.27032 11.1336 7.91669 12.287L6.87793 15.6893C6.87793 15.6893 6.85583 15.7314 6.84257 15.7577C6.83373 15.7788 6.82489 15.7946 6.81605 15.8104C6.79837 15.8367 6.78069 15.8578 6.76301 15.8789C6.73206 15.9105 6.6967 15.9421 6.65692 15.9631C6.6304 15.9737 6.6083 15.9842 6.58177 15.9895C6.55525 15.9947 6.53315 16 6.50663 16L6.42707 15.9895C6.40054 15.9895 6.37844 15.9737 6.35192 15.9631C6.31214 15.9421 6.27678 15.9105 6.24141 15.8789C6.21931 15.8578 6.20605 15.8367 6.18837 15.8104C6.17953 15.7946 6.17069 15.7788 6.16185 15.763C6.14859 15.7367 6.13091 15.7156 6.12207 15.6893L5.0833 12.287C4.7341 11.1336 3.98266 10.2172 3.02346 9.78012L0.296157 8.53193C0.119346 8.45293 0 8.24753 0 8.02107C0 7.78407 0.128188 7.5734 0.31826 7.50494L2.81129 6.56748C3.88983 6.16195 4.74294 5.16656 5.10983 3.89203L6.12649 0.315997C6.13975 0.273864 6.15301 0.236998 6.17069 0.205398C6.18395 0.184331 6.19721 0.163265 6.21489 0.142199C6.25026 0.094799 6.29888 0.0579326 6.35634 0.0315995C6.37402 0.0263328 6.3917 0.0157997 6.40938 0.0157997C6.43591 0.00526648 6.46685 0 6.49779 0C6.52873 0 6.55967 -1.40884e-07 6.5862 0.0157997C6.60388 0.0157997 6.62156 0.0263328 6.63924 0.0315995C6.68786 0.052666 6.73206 0.0895326 6.76743 0.131666C6.78511 0.147465 6.79395 0.168532 6.80721 0.189598C6.83373 0.231731 6.85141 0.268598 6.86467 0.321264L7.88133 3.8973C8.24379 5.17182 9.09691 6.16722 10.1755 6.57275L12.6685 7.5102C12.8586 7.57867 12.9867 7.78934 12.9867 8.02633L13 8.02107Z" fill="#4983EE"/>
</svg>
