<svg  fill="none" xmlns="http://www.w3.org/2000/svg">
<path d="M15.9981 10V17.4976H4.00195V10" stroke="currentColor" stroke-width="1.5" stroke-linecap="round" stroke-linejoin="round"/>
<path d="M17.4971 6.25391H2.50195V10.0027H17.4971V6.25391Z" stroke="currentColor" stroke-width="1.5" stroke-linecap="round" stroke-linejoin="round"/>
<path d="M10 17.5003V6.25391" stroke="currentColor" stroke-width="1.5" stroke-linecap="round" stroke-linejoin="round"/>
<path d="M10 6.24879H6.6261C6.12898 6.24879 5.65222 6.05131 5.30071 5.69979C4.94919 5.34828 4.75171 4.87152 4.75171 4.3744C4.75171 3.87728 4.94919 3.40052 5.30071 3.049C5.65222 2.69748 6.12898 2.5 6.6261 2.5C9.25026 2.5 10 6.24879 10 6.24879Z" stroke="currentColor" stroke-width="1.5" stroke-linecap="round" stroke-linejoin="round"/>
<path d="M10 6.24879H13.3739C13.871 6.24879 14.3478 6.05131 14.6993 5.69979C15.0508 5.34828 15.2483 4.87152 15.2483 4.3744C15.2483 3.87728 15.0508 3.40052 14.6993 3.049C14.3478 2.69748 13.871 2.5 13.3739 2.5C10.7498 2.5 10 6.24879 10 6.24879Z" stroke="currentColor" stroke-width="1.5" stroke-linecap="round" stroke-linejoin="round"/>
</svg>
