<svg fill="none" xmlns="http://www.w3.org/2000/svg">
<path d="M2.08325 9.9987C2.08325 6.26675 2.08325 4.40077 3.24262 3.2414C4.40199 2.08203 6.26797 2.08203 9.99992 2.08203C13.7319 2.08203 15.5978 2.08203 16.7572 3.2414C17.9166 4.40077 17.9166 6.26675 17.9166 9.9987C17.9166 13.7306 17.9166 15.5966 16.7572 16.756C15.5978 17.9154 13.7319 17.9154 9.99992 17.9154C6.26797 17.9154 4.40199 17.9154 3.24262 16.756C2.08325 15.5966 2.08325 13.7306 2.08325 9.9987Z" stroke="currentColor" stroke-width="1.5"/>
<path d="M2.08325 7.5H17.9166" stroke="currentColor" stroke-width="1.5" stroke-linejoin="round"/>
<path d="M5.83309 5H5.84058" stroke="currentColor" stroke-width="2" stroke-linecap="round" stroke-linejoin="round"/>
<path d="M9.16659 5H9.17407" stroke="currentColor" stroke-width="2" stroke-linecap="round" stroke-linejoin="round"/>
<path d="M14.1666 14.1667C14.1666 11.8655 12.3011 10 9.99992 10C7.69873 10 5.83325 11.8655 5.83325 14.1667" stroke="currentColor" stroke-width="1.5" stroke-linecap="round"/>
<path d="M10.5891 12.7422L9.4106 13.9207" stroke="currentColor" stroke-width="1.5" stroke-linecap="round" stroke-linejoin="round"/>
</svg>
