<svg fill="none" xmlns="http://www.w3.org/2000/svg">
<path d="M19 17L16.5311 14.5311M9.33333 15.8V16.3333C9.33333 16.7333 9.06667 17 8.66667 17H7.86667C7.46667 17 7.2 16.7333 7.2 16.3333V6.13333C7.2 5.73333 7.46667 5.46667 7.86667 5.46667H8.66667C9.06667 5.46667 9.33333 5.73333 9.33333 6.13333V7.8M12.3333 5.86667V2.66667C12.3333 2.26667 12.6 2 13 2H14C14.4 2 14.6667 2.26667 14.6667 2.66667V5.86667M14 15.6C15.9511 15.6 17.5333 14.0178 17.5333 12.0667C17.5333 10.1156 15.9511 8.53333 14 8.53333C12.0489 8.53333 10.4667 10.1156 10.4667 12.0667C10.4667 14.0178 12.0489 15.6 14 15.6ZM4.13333 16.3333C4.13333 16.7333 3.86667 17 3.46667 17H2.66667C2.26667 17 2 16.7333 2 16.3333V9.86667C2 9.46667 2.26667 9.2 2.66667 9.2H3.46667C3.86667 9.2 4.13333 9.46667 4.13333 9.86667V16.3333Z" stroke="currentColor" stroke-width="1.5" stroke-linecap="round" stroke-linejoin="round"/>
</svg>
