<svg width="20" height="20" viewBox="0 0 20 20" fill="none" xmlns="http://www.w3.org/2000/svg">
<g clip-path="url(#clip0_570_6325)">
<path d="M18 17L15.5311 14.5311M9.33333 15.8V16.3333C9.33333 16.7333 9.06667 17 8.66667 17H7.86667C7.46667 17 7.2 16.7333 7.2 16.3333V6.13333C7.2 5.73333 7.46667 5.46667 7.86667 5.46667H8.66667C9.06667 5.46667 9.33333 5.73333 9.33333 6.13333V7.8M11.3333 5.86667V2.66667C11.3333 2.26667 11.6 2 12 2H13C13.4 2 13.6667 2.26667 13.6667 2.66667V5.86667M13 15.6C14.9511 15.6 16.5333 14.0178 16.5333 12.0667C16.5333 10.1156 14.9511 8.53333 13 8.53333C11.0489 8.53333 9.46667 10.1156 9.46667 12.0667C9.46667 14.0178 11.0489 15.6 13 15.6ZM5.13333 16.3333C5.13333 16.7333 4.86667 17 4.46667 17H3.66667C3.26667 17 3 16.7333 3 16.3333V9.86667C3 9.46667 3.26667 9.2 3.66667 9.2H4.46667C4.86667 9.2 5.13333 9.46667 5.13333 9.86667V16.3333Z" stroke="currentColor" stroke-width="1.5" stroke-linecap="round" stroke-linejoin="round"/>
</g>
<defs>
<clipPath id="clip0_570_6325">
<rect width="17.5859" height="17.5859" fill="white" transform="translate(0.998779 1)"/>
</clipPath>
</defs>
</svg>
