<svg width="20" height="20" viewBox="0 0 20 20" fill="none" xmlns="http://www.w3.org/2000/svg">
<g clip-path="url(#clip0_570_6312)">
<path d="M10 12.5C11.3807 12.5 12.5 11.3807 12.5 10C12.5 8.61929 11.3807 7.5 10 7.5C8.61929 7.5 7.5 8.61929 7.5 10C7.5 11.3807 8.61929 12.5 10 12.5Z" stroke="#888888" stroke-width="1.7" stroke-linecap="round" stroke-linejoin="round"/>
<path d="M16.1666 12.4987C16.0557 12.75 16.0226 13.0289 16.0716 13.2992C16.1206 13.5695 16.2495 13.819 16.4416 14.0154L16.4916 14.0654C16.6465 14.2202 16.7695 14.404 16.8533 14.6063C16.9372 14.8086 16.9804 15.0255 16.9804 15.2445C16.9804 15.4636 16.9372 15.6804 16.8533 15.8828C16.7695 16.0851 16.6465 16.2689 16.4916 16.4237C16.3368 16.5787 16.153 16.7016 15.9507 16.7855C15.7483 16.8693 15.5314 16.9125 15.3124 16.9125C15.0934 16.9125 14.8765 16.8693 14.6742 16.7855C14.4719 16.7016 14.288 16.5787 14.1332 16.4237L14.0833 16.3737C13.8869 16.1816 13.6374 16.0527 13.3671 16.0037C13.0967 15.9547 12.8179 15.9878 12.5666 16.0987C12.3201 16.2043 12.1099 16.3797 11.9618 16.6033C11.8138 16.8269 11.7343 17.0889 11.7333 17.357V17.4987C11.7333 17.9407 11.5577 18.3646 11.2451 18.6772C10.9325 18.9898 10.5086 19.1654 10.0666 19.1654C9.62456 19.1654 9.20063 18.9898 8.88807 18.6772C8.57551 18.3646 8.39992 17.9407 8.39992 17.4987V17.4237C8.39347 17.1479 8.30418 16.8804 8.14368 16.6559C7.98317 16.4315 7.75886 16.2606 7.49992 16.1654C7.24857 16.0544 6.96976 16.0213 6.69943 16.0704C6.4291 16.1194 6.17965 16.2482 5.98325 16.4404L5.93325 16.4904C5.77846 16.6453 5.59465 16.7683 5.39232 16.8521C5.18999 16.936 4.97311 16.9792 4.75408 16.9792C4.53506 16.9792 4.31818 16.936 4.11585 16.8521C3.91352 16.7683 3.72971 16.6453 3.57492 16.4904C3.41996 16.3356 3.29703 16.1518 3.21315 15.9494C3.12928 15.7471 3.08611 15.5302 3.08611 15.3112C3.08611 15.0922 3.12928 14.8753 3.21315 14.673C3.29703 14.4706 3.41996 14.2868 3.57492 14.132L3.62492 14.082C3.81703 13.8856 3.94591 13.6362 3.99492 13.3659C4.04394 13.0955 4.01085 12.8167 3.89992 12.5654C3.79428 12.3189 3.61888 12.1087 3.39531 11.9606C3.17173 11.8126 2.90974 11.7331 2.64159 11.732H2.49992C2.05789 11.732 1.63397 11.5564 1.32141 11.2439C1.00885 10.9313 0.833252 10.5074 0.833252 10.0654C0.833252 9.62334 1.00885 9.19941 1.32141 8.88685C1.63397 8.57429 2.05789 8.3987 2.49992 8.3987H2.57492C2.85075 8.39225 3.11826 8.30296 3.34267 8.14246C3.56708 7.98195 3.73801 7.75764 3.83325 7.4987C3.94418 7.24735 3.97727 6.96854 3.92826 6.69821C3.87924 6.42788 3.75037 6.17843 3.55825 5.98203L3.50825 5.93203C3.35329 5.77724 3.23036 5.59343 3.14649 5.3911C3.06261 5.18877 3.01944 4.97189 3.01944 4.75286C3.01944 4.53384 3.06261 4.31696 3.14649 4.11463C3.23036 3.9123 3.35329 3.72849 3.50825 3.5737C3.66304 3.41874 3.84685 3.29581 4.04918 3.21193C4.25151 3.12806 4.46839 3.08489 4.68742 3.08489C4.90644 3.08489 5.12332 3.12806 5.32565 3.21193C5.52798 3.29581 5.7118 3.41874 5.86658 3.5737L5.91658 3.6237C6.11298 3.81581 6.36243 3.94469 6.63276 3.9937C6.90309 4.04272 7.1819 4.00963 7.43325 3.8987H7.49992C7.74639 3.79306 7.9566 3.61766 8.10466 3.39409C8.25272 3.17051 8.33218 2.90852 8.33325 2.64036V2.4987C8.33325 2.05667 8.50885 1.63275 8.82141 1.32019C9.13397 1.00763 9.55789 0.832031 9.99992 0.832031C10.4419 0.832031 10.8659 1.00763 11.1784 1.32019C11.491 1.63275 11.6666 2.05667 11.6666 2.4987V2.5737C11.6677 2.84185 11.7471 3.10384 11.8952 3.32742C12.0432 3.55099 12.2534 3.7264 12.4999 3.83203C12.7513 3.94296 13.0301 3.97605 13.3004 3.92703C13.5707 3.87802 13.8202 3.74914 14.0166 3.55703L14.0666 3.50703C14.2214 3.35207 14.4052 3.22914 14.6075 3.14526C14.8098 3.06139 15.0267 3.01822 15.2458 3.01822C15.4648 3.01822 15.6817 3.06139 15.884 3.14526C16.0863 3.22914 16.2701 3.35207 16.4249 3.50703C16.5799 3.66182 16.7028 3.84563 16.7867 4.04796C16.8706 4.25029 16.9137 4.46717 16.9137 4.6862C16.9137 4.90522 16.8706 5.1221 16.7867 5.32443C16.7028 5.52676 16.5799 5.71058 16.4249 5.86536L16.3749 5.91536C16.1828 6.11176 16.0539 6.36121 16.0049 6.63154C15.9559 6.90187 15.989 7.18068 16.0999 7.43203V7.4987C16.2056 7.74517 16.381 7.95538 16.6045 8.10344C16.8281 8.2515 17.0901 8.33096 17.3583 8.33203H17.4999C17.9419 8.33203 18.3659 8.50763 18.6784 8.82019C18.991 9.13275 19.1666 9.55667 19.1666 9.9987C19.1666 10.4407 18.991 10.8646 18.6784 11.1772C18.3659 11.4898 17.9419 11.6654 17.4999 11.6654H17.4249C17.1568 11.6664 16.8948 11.7459 16.6712 11.894C16.4476 12.042 16.2722 12.2522 16.1666 12.4987V12.4987Z" stroke="#888888" stroke-width="1.7" stroke-linecap="round" stroke-linejoin="round"/>
</g>
<defs>
<clipPath id="clip0_570_6312">
<rect width="20" height="20" fill="white"/>
</clipPath>
</defs>
</svg>
