<svg fill="none" xmlns="http://www.w3.org/2000/svg">
<path d="M9.16732 11.668H6.66732C5.78326 11.668 4.93542 12.0192 4.31029 12.6443C3.68517 13.2694 3.33398 14.1172 3.33398 15.0013V16.668" stroke="currentColor" stroke-width="1.5" stroke-linecap="round" stroke-linejoin="round"/>
<path d="M14.5827 16.6654C16.1935 16.6654 17.4993 15.3595 17.4993 13.7487C17.4993 12.1379 16.1935 10.832 14.5827 10.832C12.9719 10.832 11.666 12.1379 11.666 13.7487C11.666 15.3595 12.9719 16.6654 14.5827 16.6654Z" stroke="currentColor" stroke-width="1.5" stroke-linecap="round" stroke-linejoin="round"/>
<path d="M18.3327 17.4987L16.666 15.832" stroke="currentColor" stroke-width="1.5" stroke-linecap="round" stroke-linejoin="round"/>
<path d="M9.99935 9.16667C11.8403 9.16667 13.3327 7.67428 13.3327 5.83333C13.3327 3.99238 11.8403 2.5 9.99935 2.5C8.1584 2.5 6.66602 3.99238 6.66602 5.83333C6.66602 7.67428 8.1584 9.16667 9.99935 9.16667Z" stroke="currentColor" stroke-width="1.5" stroke-linecap="round" stroke-linejoin="round"/>
</svg>
