<svg width="20" height="21" viewBox="0 0 20 21" fill="none" xmlns="http://www.w3.org/2000/svg">
<path d="M15.8333 9.66406H4.16667C3.24619 9.66406 2.5 10.4103 2.5 11.3307V17.1641C2.5 18.0845 3.24619 18.8307 4.16667 18.8307H15.8333C16.7538 18.8307 17.5 18.0845 17.5 17.1641V11.3307C17.5 10.4103 16.7538 9.66406 15.8333 9.66406Z" stroke="#D2D4DA" stroke-width="1.5" stroke-linecap="round" stroke-linejoin="round"/>
<path d="M5.83301 9.66406V6.33073C5.83301 5.22566 6.27199 4.16585 7.0534 3.38445C7.8348 2.60305 8.89461 2.16406 9.99967 2.16406C11.1047 2.16406 12.1646 2.60305 12.946 3.38445C13.7274 4.16585 14.1663 5.22566 14.1663 6.33073V9.66406" stroke="#D2D4DA" stroke-width="1.5" stroke-linecap="round" stroke-linejoin="round"/>
</svg>
