<svg width="20" height="20" viewBox="0 0 20 20" fill="none" xmlns="http://www.w3.org/2000/svg">
<path d="M10.529 16.3186C10.7963 16.5785 11.2236 16.5725 11.4835 16.3052C11.7433 16.0379 11.7373 15.6105 11.47 15.3507L10.529 16.3186ZM4.99951 10.0013L4.52898 9.51733C4.39826 9.64442 4.32451 9.81898 4.32451 10.0013C4.32451 10.1836 4.39826 10.3582 4.52898 10.4853L4.99951 10.0013ZM11.47 4.65194C11.7373 4.39207 11.7433 3.96473 11.4835 3.69744C11.2236 3.43015 10.7963 3.42413 10.529 3.684L11.47 4.65194ZM14.529 15.3469C14.7963 15.6068 15.2236 15.6008 15.4835 15.3335C15.7434 15.0662 15.7373 14.6388 15.47 14.379L14.529 15.3469ZM9.99951 10.0021L9.529 9.51812C9.39827 9.64521 9.32451 9.81978 9.32451 10.0021C9.32451 10.1844 9.39827 10.359 9.529 10.4861L9.99951 10.0021ZM15.47 5.62526C15.7373 5.3654 15.7434 4.93806 15.4835 4.67076C15.2236 4.40346 14.7963 4.39743 14.529 4.65729L15.47 5.62526ZM10.9995 15.8346L11.47 15.3507L5.47004 9.51733L4.99951 10.0013L4.52898 10.4853L10.529 16.3186L10.9995 15.8346ZM4.99951 10.0013L5.47004 10.4853L11.47 4.65194L10.9995 4.16797L10.529 3.684L4.52898 9.51733L4.99951 10.0013ZM14.9995 14.8629L15.47 14.379L10.47 9.51812L9.99951 10.0021L9.529 10.4861L14.529 15.3469L14.9995 14.8629ZM9.99951 10.0021L10.47 10.4861L15.47 5.62526L14.9995 5.14128L14.529 4.65729L9.529 9.51812L9.99951 10.0021Z" fill="#293F66"/>
</svg>
