<svg width="24" height="24" viewBox="0 0 24 24" fill="none" xmlns="http://www.w3.org/2000/svg">
<path d="M12.0185 7.39971C12.5706 7.3864 13.0074 6.92803 12.9941 6.3759C12.9808 5.82378 12.5224 5.38698 11.9703 5.40029L12.0185 7.39971ZM6.46836 12.193H7.46836C7.46836 12.1853 7.46827 12.1776 7.4681 12.1699L6.46836 12.193ZM6.46836 14.51L6.51919 15.5087C7.05103 15.4816 7.46836 15.0425 7.46836 14.51H6.46836ZM6.46836 17.6L6.41753 18.5987C6.43446 18.5996 6.45141 18.6 6.46836 18.6V17.6ZM9.66136 18.6C10.2136 18.6 10.6614 18.1523 10.6614 17.6C10.6614 17.0477 10.2136 16.6 9.66136 16.6V18.6ZM10.9944 6.4C10.9944 6.95228 11.4421 7.4 11.9944 7.4C12.5466 7.4 12.9944 6.95228 12.9944 6.4H10.9944ZM12.9944 4C12.9944 3.44772 12.5466 3 11.9944 3C11.4421 3 10.9944 3.44772 10.9944 4H12.9944ZM12.0185 5.40029C11.4663 5.38698 11.008 5.82378 10.9947 6.3759C10.9813 6.92803 11.4181 7.3864 11.9703 7.39971L12.0185 5.40029ZM17.5204 12.193L16.5206 12.1699C16.5204 12.1776 16.5204 12.1853 16.5204 12.193H17.5204ZM17.5204 14.51H16.5204C16.5204 15.0425 16.9377 15.4816 17.4695 15.5087L17.5204 14.51ZM17.5204 17.6V18.6C17.5373 18.6 17.5543 18.5996 17.5712 18.5987L17.5204 17.6ZM14.3274 16.6C13.7751 16.6 13.3274 17.0477 13.3274 17.6C13.3274 18.1523 13.7751 18.6 14.3274 18.6V16.6ZM10.6604 17.6037C10.6624 17.0514 10.2163 16.602 9.66402 16.6C9.11174 16.598 8.66239 17.0441 8.66037 17.5963L10.6604 17.6037ZM10.3434 19.3L11.0645 18.6072L11.0629 18.6055L10.3434 19.3ZM13.6434 19.3L12.9239 18.6055L12.9222 18.6072L13.6434 19.3ZM15.3264 17.5963C15.3243 17.0441 14.875 16.598 14.3227 16.6C13.7704 16.602 13.3243 17.0514 13.3264 17.6037L15.3264 17.5963ZM9.65936 16.6C9.10708 16.6 8.65936 17.0477 8.65936 17.6C8.65936 18.1523 9.10708 18.6 9.65936 18.6V16.6ZM14.3274 18.6C14.8796 18.6 15.3274 18.1523 15.3274 17.6C15.3274 17.0477 14.8796 16.6 14.3274 16.6V18.6ZM11.9944 6.4L11.9703 5.40029C8.29359 5.48892 5.3838 8.53931 5.46863 12.2161L6.46836 12.193L7.4681 12.1699C7.40872 9.59664 9.44523 7.46174 12.0185 7.39971L11.9944 6.4ZM6.46836 12.193H5.46836V14.51H6.46836H7.46836V12.193H6.46836ZM6.46836 14.51L6.41753 13.5113C5.06293 13.5802 4 14.6987 4 16.055H5H6C6 15.7637 6.22828 15.5235 6.51919 15.5087L6.46836 14.51ZM5 16.055H4C4 17.4114 5.06294 18.5298 6.41753 18.5987L6.46836 17.6L6.51919 16.6013C6.22828 16.5865 6 16.3463 6 16.055H5ZM6.46836 17.6V18.6H9.66136V17.6V16.6H6.46836V17.6ZM11.9944 6.4H12.9944V4H11.9944H10.9944V6.4H11.9944ZM11.9944 6.4L11.9703 7.39971C14.5435 7.46174 16.58 9.59664 16.5206 12.1699L17.5204 12.193L18.5201 12.2161C18.6049 8.53931 15.6951 5.48892 12.0185 5.40029L11.9944 6.4ZM17.5204 12.193H16.5204V14.51H17.5204H18.5204V12.193H17.5204ZM17.5204 14.51L17.4695 15.5087C17.7604 15.5235 17.9887 15.7637 17.9887 16.055H18.9887H19.9887C19.9887 14.6987 18.9258 13.5802 17.5712 13.5113L17.5204 14.51ZM18.9887 16.055H17.9887C17.9887 16.3463 17.7604 16.5865 17.4695 16.6013L17.5204 17.6L17.5712 18.5987C18.9258 18.5298 19.9887 17.4114 19.9887 16.055H18.9887ZM17.5204 17.6V16.6H14.3274V17.6V18.6H17.5204V17.6ZM9.66036 17.6L8.66037 17.5963C8.65709 18.4907 9.00275 19.351 9.62386 19.9945L10.3434 19.3L11.0629 18.6055C10.8034 18.3367 10.659 17.9773 10.6604 17.6037L9.66036 17.6ZM10.3434 19.3L9.62221 19.9928C10.2422 20.6382 11.0984 21.0029 11.9934 21.0029V20.0029V19.0029C11.6428 19.0029 11.3074 18.86 11.0645 18.6072L10.3434 19.3ZM11.9934 20.0029V21.0029C12.8883 21.0029 13.7445 20.6382 14.3645 19.9928L13.6434 19.3L12.9222 18.6072C12.6793 18.86 12.3439 19.0029 11.9934 19.0029V20.0029ZM13.6434 19.3L14.3629 19.9945C14.984 19.351 15.3296 18.4907 15.3264 17.5963L14.3264 17.6L13.3264 17.6037C13.3277 17.9773 13.1833 18.3367 12.9239 18.6055L13.6434 19.3ZM9.65936 17.6V18.6H14.3274V17.6V16.6H9.65936V17.6Z" fill="currentColor"/>
</svg>
