<svg width="40" height="40" viewBox="0 0 40 40" fill="none" xmlns="http://www.w3.org/2000/svg">
<path d="M33.9945 26.4295C33.9413 24.9504 33.4396 23.5141 32.5802 22.386C31.9989 21.6229 31.132 21.127 30.1999 20.8855C29.3105 20.6556 28.3127 20.4942 27.5097 21.0078C26.7067 21.5214 25.8078 23.431 24.8163 23.431C24.6678 23.431 24.5231 23.3852 24.4029 23.3001C24.2827 23.215 24.1931 23.095 24.147 22.9573C24.1008 22.8195 24.1005 22.671 24.146 22.5331C24.1915 22.3951 24.2805 22.2747 24.4003 22.1891C26.9271 20.3847 27.3155 16.6898 27.3218 14.6481C27.3318 11.6202 25.903 8.77822 23.5929 7.22697C19.41 4.42226 12.2098 3.93126 8.56495 7.71246C7.12868 9.20379 5.95046 11.7706 6.76099 13.8838C7.26961 15.2113 8.54679 15.9982 9.9317 16.3908C10.2674 16.4861 8.11522 21.1546 7.90162 21.6095C6.54803 24.4986 5.18691 28.026 6.59375 31.1413C6.83833 31.6802 7.15581 32.1847 7.5377 32.6412C9.4281 34.9115 12.7992 35.3444 15.2991 34.766C16.4316 34.5043 17.8911 33.9558 17.8942 32.6009C17.8942 31.6965 17.4025 30.8705 17.3968 29.9454C17.3906 28.7793 17.5967 27.6157 17.9324 26.4998C17.9856 26.3251 18.1076 26.1781 18.2718 26.0913C18.436 26.0044 18.6288 25.9848 18.8078 26.0367C18.9868 26.0886 19.1373 26.2077 19.2263 26.368C19.3153 26.5282 19.3354 26.7164 19.2822 26.8912C18.9377 28.0236 18.3107 30.7207 19.3599 32.7525C19.4027 32.8082 19.4363 32.8701 19.4595 32.9359C19.529 33.0552 19.6029 33.172 19.685 33.2851C20.8801 34.9403 23.2384 35.1072 25.0092 34.9562C29.4683 34.574 34.1831 31.7436 33.9945 26.4295ZM22.416 16.3192C22.1654 16.3192 21.9644 16.0649 21.9644 15.7506C21.9644 15.4363 22.1667 15.1819 22.416 15.1819C22.6653 15.1819 22.867 15.4369 22.867 15.7506C22.867 16.0642 22.6628 16.3192 22.416 16.3192ZM23.9193 15.7506C23.9193 15.4369 24.121 15.1819 24.3703 15.1819C24.6196 15.1819 24.8206 15.4369 24.8206 15.7506C24.8206 16.0642 24.6189 16.3192 24.3703 16.3192C24.1216 16.3192 23.9193 16.0649 23.9193 15.7506Z" fill="white"/>
</svg>
